<?xml version="1.0" encoding="UTF-8" standalone="no"?>
<!-- Created with Inkscape (http://www.inkscape.org/) -->

<svg
   width="211.66666mm"
   height="46.24646mm"
   viewBox="0 0 211.66666 46.24646"
   version="1.1"
   id="svg1"
   xml:space="preserve"
   inkscape:version="1.4.2 (f4327f4, 2025-05-13)"
   sodipodi:docname="eepat_blanco.svg"
   xmlns:inkscape="http://www.inkscape.org/namespaces/inkscape"
   xmlns:sodipodi="http://sodipodi.sourceforge.net/DTD/sodipodi-0.dtd"
   xmlns="http://www.w3.org/2000/svg"
   xmlns:svg="http://www.w3.org/2000/svg"><sodipodi:namedview
     id="namedview1"
     pagecolor="#ffffff"
     bordercolor="#000000"
     borderopacity="0.25"
     inkscape:showpageshadow="2"
     inkscape:pageopacity="0.0"
     inkscape:pagecheckerboard="0"
     inkscape:deskcolor="#d1d1d1"
     inkscape:document-units="mm"
     inkscape:zoom="1.0053654"
     inkscape:cx="426.21321"
     inkscape:cy="100.46099"
     inkscape:window-width="1920"
     inkscape:window-height="991"
     inkscape:window-x="-9"
     inkscape:window-y="-9"
     inkscape:window-maximized="1"
     inkscape:current-layer="layer1" /><defs
     id="defs1"><style
   type="text/css"
   id="style1">
   <![CDATA[
    .fil0 {fill:#D81F25}
    .fil2 {fill:#FEFEFE;fill-rule:nonzero}
    .fil1 {fill:#2E3D9C;fill-rule:nonzero}
   ]]>
  </style>
  
  
  
  
 </defs><g
     inkscape:label="Capa 1"
     inkscape:groupmode="layer"
     id="layer1"
     transform="translate(67.165923,-64.1959)"><path
       id="path2"
       style="clip-rule:evenodd;fill:#ffffff;fill-opacity:1;stroke-width:0.00686027;image-rendering:optimizeQuality;shape-rendering:geometricPrecision;text-rendering:geometricPrecision"
       class="fil1"
       d="m -55.271971,74.302873 -0.03403,0.1021 h 3.54e-4 l -0.592394,1.790297 -0.177966,0.53709 -2.307534,6.972941 -1.613039,4.873508 -7.169343,21.664371 h 30.300338 l 2.352202,-7.10624 -3.55e-4,-3.5e-4 0.342815,-1.03554 h -16.388841 -2.782228 l 0.936626,-2.830446 1.406004,-4.248854 h 1.159971 16.119765 3.55e-4 l 2.425941,-7.33029 h -11.33914 -5.94095 l 1.652745,-4.994043 0.238588,-0.721082 h 18.627245 l 1.62793,-4.91924 0.911456,-2.754222 h -3.609664 z m 43.361708,0 -0.03403,0.1021 h 3.55e-4 l -0.77036,2.327387 -2.307534,6.972941 -1.612685,4.873508 h -3.55e-4 l -7.169342,21.664371 H 6.4961189 l 2.3522022,-7.10624 -3.54e-4,-3.5e-4 0.3428153,-1.03554 h -1.2907867 -14.045857 -1.0521981 -2.782228 l 0.9366265,-2.830446 1.4060036,-4.248854 h 1.1599709 7.5972412 5.1457757 3.3767486 3.546e-4 L 12.068375,87.69146 H 0.72923487 -5.2117161 L -3.55897,82.697417 -3.3203821,81.976335 H 15.306863 l 1.62793,-4.91924 0.911456,-2.754222 h -3.609665 z m 43.336537,0 -11.893955,35.940307 h 11.154792 l 4.414058,-13.338601 h 6.075312 c 4.476875,0 8.145127,-1.020829 11.00483,-3.062651 2.859773,-2.041823 4.886091,-4.878291 6.088079,-8.510115 1.165766,-3.522886 1.064597,-6.250745 -0.303821,-8.158792 -1.365811,-1.916279 -4.062762,-2.870148 -8.079382,-2.870148 z m 49.018693,0 -25.40024,35.940307 h 11.347292 l 3.703963,-5.9328 h 12.652266 l -0.197823,5.9328 h 11.62311 L 92.5534,74.302873 Z m 30.299273,0 -2.93822,8.878456 h 11.32178 l -8.95574,27.061851 h 11.10445 l 8.95574,-27.061851 h 11.33027 l 2.93822,-8.878456 z m -70.580961,7.305121 h 3.163331 c 2.075301,0 3.359309,0.393226 3.843644,1.179824 0.495723,0.778161 0.553487,1.740467 0.179739,2.870148 -0.382117,1.154721 -1.132894,2.108735 -2.24124,2.853486 -1.116714,0.744749 -2.736283,1.113172 -4.878471,1.113172 h -2.719834 z m 43.132336,2.008324 -0.30098,12.919919 h -7.924463 z" /><path
       class="fil0"
       d="M -12.498037,87.319128 C -17.541845,78.880309 -24.793219,72.00865 -40.790821,64.1959 c 14.144437,10.661409 24.818812,23.977263 34.7284725,39.68934 L -6.790772,88.342337 C 2.4376638,94.980472 8.2662868,103.07566 15.794816,110.44236 8.3945053,96.877748 -0.84181989,84.001364 -12.776701,73.675902 Z"
       id="path1"
       style="clip-rule:evenodd;display:inline;fill-rule:evenodd;stroke-width:0.00686027;image-rendering:optimizeQuality;shape-rendering:geometricPrecision;text-rendering:geometricPrecision" /></g></svg>
