<?xml version="1.0" encoding="UTF-8" standalone="no"?>
<!-- Created with Inkscape (http://www.inkscape.org/) -->

<svg
   width="71.804581mm"
   height="43.319832mm"
   viewBox="0 0 71.80458 43.319832"
   version="1.1"
   id="svg1"
   inkscape:version="1.4.2 (f4327f4, 2025-05-13)"
   sodipodi:docname="cloudy.svg"
   xmlns:inkscape="http://www.inkscape.org/namespaces/inkscape"
   xmlns:sodipodi="http://sodipodi.sourceforge.net/DTD/sodipodi-0.dtd"
   xmlns="http://www.w3.org/2000/svg"
   xmlns:svg="http://www.w3.org/2000/svg">
  <sodipodi:namedview
     id="namedview1"
     pagecolor="#ffffff"
     bordercolor="#000000"
     borderopacity="0.25"
     inkscape:showpageshadow="2"
     inkscape:pageopacity="0.0"
     inkscape:pagecheckerboard="0"
     inkscape:deskcolor="#d1d1d1"
     inkscape:document-units="mm"
     inkscape:zoom="2.0107308"
     inkscape:cx="66.891103"
     inkscape:cy="-12.43329"
     inkscape:window-width="1920"
     inkscape:window-height="991"
     inkscape:window-x="-9"
     inkscape:window-y="-9"
     inkscape:window-maximized="1"
     inkscape:current-layer="layer1" />
  <defs
     id="defs1" />
  <g
     inkscape:label="Capa 1"
     inkscape:groupmode="layer"
     id="layer1"
     transform="translate(-151.01778,-207.87637)">
    <path
       id="path16"
       style="fill:#92969a;fill-opacity:1;stroke:none;stroke-width:4.85649;stroke-linecap:round;stroke-linejoin:round;paint-order:markers fill stroke"
       d="m 192.93053,207.87637 a 15.817425,17.522146 0 0 0 -15.66828,15.12272 9.0941315,10.074251 0 0 0 -3.5054,-0.77879 9.0941315,10.074251 0 0 0 -9.02582,8.84343 9.0941333,10.074253 0 0 0 -8.58142,10.0578 9.0941333,10.074253 0 0 0 9.09404,10.07467 h 44.50029 a 13.078306,14.487819 0 0 0 13.07842,-14.48794 13.078306,14.487819 0 0 0 -13.07842,-14.48796 13.078306,14.487819 0 0 0 -1.24746,0.0659 15.817425,17.522146 0 0 0 -15.56595,-14.4098 z" />
    <path
       id="path13-3"
       style="fill:#cad1d9;fill-opacity:1;stroke:none;stroke-width:4.4594;stroke-linecap:round;stroke-linejoin:round;paint-order:markers fill stroke"
       d="m 186.56465,209.98174 a 15.28673,15.28673 0 0 0 -15.14259,13.19341 8.7890117,8.7890117 0 0 0 -3.38779,-0.67943 8.7890117,8.7890117 0 0 0 -8.72299,7.71521 8.7890135,8.7890135 0 0 0 -8.2935,8.77466 8.7890135,8.7890135 0 0 0 8.78892,8.78938 h 43.00725 a 12.639512,12.639512 0 0 0 12.63962,-12.63962 12.639512,12.639512 0 0 0 -12.63962,-12.63963 12.639512,12.639512 0 0 0 -1.20561,0.0575 15.28673,15.28673 0 0 0 -15.04369,-12.57145 z" />
  </g>
</svg>
