<?xml version="1.0" encoding="UTF-8" standalone="no"?>
<!-- Created with Inkscape (http://www.inkscape.org/) -->

<svg
   width="64.837753mm"
   height="66.971779mm"
   viewBox="0 0 64.837753 66.971779"
   version="1.1"
   id="svg1"
   inkscape:version="1.4.2 (f4327f4, 2025-05-13)"
   sodipodi:docname="fog.svg"
   xmlns:inkscape="http://www.inkscape.org/namespaces/inkscape"
   xmlns:sodipodi="http://sodipodi.sourceforge.net/DTD/sodipodi-0.dtd"
   xmlns="http://www.w3.org/2000/svg"
   xmlns:svg="http://www.w3.org/2000/svg">
  <sodipodi:namedview
     id="namedview1"
     pagecolor="#ffffff"
     bordercolor="#000000"
     borderopacity="0.25"
     inkscape:showpageshadow="2"
     inkscape:pageopacity="0.0"
     inkscape:pagecheckerboard="0"
     inkscape:deskcolor="#d1d1d1"
     inkscape:document-units="mm"
     inkscape:zoom="2.0107307"
     inkscape:cx="80.81639"
     inkscape:cy="132.78755"
     inkscape:window-width="1920"
     inkscape:window-height="991"
     inkscape:window-x="-9"
     inkscape:window-y="-9"
     inkscape:window-maximized="1"
     inkscape:current-layer="layer1" />
  <defs
     id="defs1" />
  <g
     inkscape:label="Capa 1"
     inkscape:groupmode="layer"
     id="layer1"
     transform="translate(-142.34583,-193.14582)">
    <path
       id="path16-8-3"
       style="fill:#cbd2d9;fill-opacity:1;stroke:none;stroke-width:4.55921;stroke-linecap:round;stroke-linejoin:round;paint-order:markers fill stroke"
       d="m 177.89271,193.14582 a 15.28673,15.978644 0 0 0 -15.1426,13.79059 8.7890117,9.1868238 0 0 0 -3.38779,-0.71019 8.7890117,9.1868238 0 0 0 -8.72299,8.06443 8.7890135,9.1868256 0 0 0 -8.2935,9.17182 8.7890135,9.1868256 0 0 0 8.78892,9.1872 h 43.00726 a 12.639512,13.211607 0 0 0 12.63962,-13.21172 12.639512,13.211607 0 0 0 -12.63962,-13.21173 12.639512,13.211607 0 0 0 -1.20561,0.0601 15.28673,15.978644 0 0 0 -15.04369,-13.14046 z" />
    <path
       style="baseline-shift:baseline;display:inline;overflow:visible;vector-effect:none;fill:#b3bbc3;fill-opacity:1;stroke-linecap:round;stroke-linejoin:round;paint-order:markers fill stroke;enable-background:accumulate;stop-color:#000000"
       d="m 145.05468,238.24846 a 1.841,1.841 0 0 0 -1.8418,1.83984 1.841,1.841 0 0 0 1.8418,1.8418 h 60.28711 a 1.841,1.841 0 0 0 1.84179,-1.8418 1.841,1.841 0 0 0 -1.84179,-1.83984 z"
       id="path27" />
    <path
       style="baseline-shift:baseline;display:inline;overflow:visible;vector-effect:none;fill:#b3bbc3;fill-opacity:1;stroke-linecap:round;stroke-linejoin:round;paint-order:markers fill stroke;enable-background:accumulate;stop-color:#000000"
       d="m 150.19726,247.31877 a 1.841,1.841 0 0 0 -1.8418,1.83984 1.841,1.841 0 0 0 1.8418,1.8418 h 49.95898 a 1.841,1.841 0 0 0 1.83984,-1.8418 1.841,1.841 0 0 0 -1.83984,-1.83984 z"
       id="path29" />
    <path
       style="baseline-shift:baseline;display:inline;overflow:visible;vector-effect:none;fill:#b3bbc3;fill-opacity:1;stroke-linecap:round;stroke-linejoin:round;paint-order:markers fill stroke;enable-background:accumulate;stop-color:#000000"
       d="m 159.36132,256.43596 a 1.841,1.841 0 0 0 -1.83985,1.83984 1.841,1.841 0 0 0 1.83985,1.8418 h 31.53711 a 1.841,1.841 0 0 0 1.84179,-1.8418 1.841,1.841 0 0 0 -1.84179,-1.83984 z"
       id="path31" />
  </g>
</svg>
