<?xml version="1.0" encoding="UTF-8" standalone="no"?>
<!-- Created with Inkscape (http://www.inkscape.org/) -->

<svg
   width="74.738586mm"
   height="63.124325mm"
   viewBox="0 0 74.738586 63.124325"
   version="1.1"
   id="svg1"
   inkscape:version="1.4.2 (f4327f4, 2025-05-13)"
   sodipodi:docname="partly-cloudy.svg"
   xmlns:inkscape="http://www.inkscape.org/namespaces/inkscape"
   xmlns:sodipodi="http://sodipodi.sourceforge.net/DTD/sodipodi-0.dtd"
   xmlns="http://www.w3.org/2000/svg"
   xmlns:svg="http://www.w3.org/2000/svg">
  <sodipodi:namedview
     id="namedview1"
     pagecolor="#ffffff"
     bordercolor="#000000"
     borderopacity="0.25"
     inkscape:showpageshadow="2"
     inkscape:pageopacity="0.0"
     inkscape:pagecheckerboard="0"
     inkscape:deskcolor="#d1d1d1"
     inkscape:document-units="mm"
     inkscape:zoom="1.0053654"
     inkscape:cx="-2.4866582"
     inkscape:cy="-13.925286"
     inkscape:window-width="1920"
     inkscape:window-height="991"
     inkscape:window-x="-9"
     inkscape:window-y="-9"
     inkscape:window-maximized="1"
     inkscape:current-layer="layer1" />
  <defs
     id="defs1" />
  <g
     inkscape:label="Capa 1"
     inkscape:groupmode="layer"
     id="layer1"
     transform="translate(-134.40833,-202.93541)">
    <path
       id="path1-5"
       style="fill:#fdc106;fill-opacity:1;stroke:#000080;stroke-width:0;stroke-linecap:round;stroke-linejoin:round;paint-order:markers fill stroke"
       d="m 176.96138,228.40027 a 13.771032,13.771032 0 0 1 -13.77104,13.77103 13.771032,13.771032 0 0 1 -13.77103,-13.77103 13.771032,13.771032 0 0 1 13.77103,-13.77104 13.771032,13.771032 0 0 1 13.77104,13.77104 z" />
    <path
       style="fill:#fdc106;fill-opacity:1;stroke:#fdc106;stroke-width:2.82048;stroke-linecap:round;stroke-linejoin:round;stroke-dasharray:none;stroke-opacity:1;paint-order:markers fill stroke"
       d="m 163.19034,204.34565 v 5.90885"
       id="path2-5"
       sodipodi:nodetypes="cc" />
    <path
       style="fill:#fdc106;fill-opacity:1;stroke:#fdc106;stroke-width:2.82048;stroke-linecap:round;stroke-linejoin:round;stroke-dasharray:none;stroke-opacity:1;paint-order:markers fill stroke"
       d="m 163.19034,246.54603 v 5.90885"
       id="path3-1"
       sodipodi:nodetypes="cc" />
    <path
       style="fill:#fdc106;fill-opacity:1;stroke:#fdc106;stroke-width:2.82048;stroke-linecap:round;stroke-linejoin:round;stroke-dasharray:none;stroke-opacity:1;paint-order:markers fill stroke"
       d="M 187.24496,228.40027 H 181.3361"
       id="path5-7"
       sodipodi:nodetypes="cc" />
    <path
       style="fill:#fdc106;fill-opacity:1;stroke:#fdc106;stroke-width:2.82048;stroke-linecap:round;stroke-linejoin:round;stroke-dasharray:none;stroke-opacity:1;paint-order:markers fill stroke"
       d="m 145.04458,228.40027 h -5.90885"
       id="path6-1"
       sodipodi:nodetypes="cc" />
    <path
       style="fill:#fdc106;fill-opacity:1;stroke:#fdc106;stroke-width:2.82048;stroke-linecap:round;stroke-linejoin:round;stroke-dasharray:none;stroke-opacity:1;paint-order:markers fill stroke"
       d="m 180.19953,245.40944 -4.1782,-4.17818"
       id="path8-1"
       sodipodi:nodetypes="cc" />
    <path
       style="fill:#fdc106;fill-opacity:1;stroke:#fdc106;stroke-width:2.82048;stroke-linecap:round;stroke-linejoin:round;stroke-dasharray:none;stroke-opacity:1;paint-order:markers fill stroke"
       d="m 150.35935,215.56927 -4.17818,-4.17818"
       id="path9-5"
       sodipodi:nodetypes="cc" />
    <path
       style="fill:#fdc106;fill-opacity:1;stroke:#fdc106;stroke-width:2.82048;stroke-linecap:round;stroke-linejoin:round;stroke-dasharray:none;stroke-opacity:1;paint-order:markers fill stroke"
       d="m 180.19953,211.39108 -4.1782,4.1782"
       id="path11-2"
       sodipodi:nodetypes="cc" />
    <path
       style="fill:#fdc106;fill-opacity:1;stroke:#fdc106;stroke-width:2.82048;stroke-linecap:round;stroke-linejoin:round;stroke-dasharray:none;stroke-opacity:1;paint-order:markers fill stroke"
       d="m 150.35935,241.23126 -4.17818,4.17818"
       id="path12-7"
       sodipodi:nodetypes="cc" />
    <path
       id="path13"
       style="fill:#dee4ea;fill-opacity:1;stroke:none;stroke-width:5.17243;stroke-linecap:round;stroke-linejoin:round;paint-order:markers fill stroke"
       d="m 175.63889,222.22365 a 17.730967,17.730967 0 0 0 -17.56379,15.30295 10.19431,10.19431 0 0 0 -3.92947,-0.78807 10.19431,10.19431 0 0 0 -10.11773,8.94881 10.194312,10.194312 0 0 0 -9.61957,10.17767 10.194312,10.194312 0 0 0 10.19421,10.19473 h 49.88378 a 14.660477,14.660477 0 0 0 14.6606,-14.66061 14.660477,14.660477 0 0 0 -14.6606,-14.6606 14.660477,14.660477 0 0 0 -1.39837,0.0667 17.730967,17.730967 0 0 0 -17.44906,-14.58154 z" />
  </g>
</svg>
