<?xml version="1.0" encoding="UTF-8" standalone="no"?>
<!-- Created with Inkscape (http://www.inkscape.org/) -->

<svg
   width="67.988602mm"
   height="71.160561mm"
   viewBox="0 0 67.9886 71.16056"
   version="1.1"
   id="svg1"
   inkscape:version="1.4.2 (f4327f4, 2025-05-13)"
   sodipodi:docname="rain.svg"
   xmlns:inkscape="http://www.inkscape.org/namespaces/inkscape"
   xmlns:sodipodi="http://sodipodi.sourceforge.net/DTD/sodipodi-0.dtd"
   xmlns="http://www.w3.org/2000/svg"
   xmlns:svg="http://www.w3.org/2000/svg">
  <sodipodi:namedview
     id="namedview1"
     pagecolor="#ffffff"
     bordercolor="#000000"
     borderopacity="0.25"
     inkscape:showpageshadow="2"
     inkscape:pageopacity="0.0"
     inkscape:pagecheckerboard="0"
     inkscape:deskcolor="#d1d1d1"
     inkscape:document-units="mm"
     inkscape:zoom="1.0053654"
     inkscape:cx="121.84625"
     inkscape:cy="110.40762"
     inkscape:window-width="1920"
     inkscape:window-height="991"
     inkscape:window-x="-9"
     inkscape:window-y="-9"
     inkscape:window-maximized="1"
     inkscape:current-layer="layer1" />
  <defs
     id="defs1" />
  <g
     inkscape:label="Capa 1"
     inkscape:groupmode="layer"
     id="layer1"
     transform="translate(-283.10417,-272.25623)">
    <path
       id="path13-3"
       style="fill:#cad1d9;fill-opacity:1;stroke:none;stroke-width:4.90297;stroke-linecap:round;stroke-linejoin:round;paint-order:markers fill stroke"
       d="m 320.611,272.25623 a 16.129598,17.513427 0 0 0 -15.97751,15.11519 9.2736137,10.069238 0 0 0 -3.57459,-0.77839 9.2736137,10.069238 0 0 0 -9.20395,8.83903 9.2736156,10.06924 0 0 0 -8.75078,10.05279 9.2736156,10.06924 0 0 0 9.27352,10.06966 h 45.37855 a 13.33642,14.48061 0 0 0 13.33653,-14.48073 13.33642,14.48061 0 0 0 -13.33653,-14.48075 13.33642,14.48061 0 0 0 -1.27209,0.0659 A 16.129598,17.513427 0 0 0 320.611,272.2563 Z" />
    <path
       id="path21-0"
       style="font-variation-settings:normal;vector-effect:none;fill:#4890e3;fill-opacity:1;stroke-width:3.382;stroke-linecap:round;stroke-linejoin:round;stroke-miterlimit:4;stroke-dasharray:none;stroke-dashoffset:0;stroke-opacity:1;-inkscape-stroke:none;paint-order:markers fill stroke;stop-color:#000000"
       d="m 336.66123,327.41269 c 0,1.61697 -1.39305,2.91133 -3.01002,2.91133 -1.61697,0 -2.92778,-1.31081 -2.92778,-2.92778 0,-1.61697 1.17922,-3.14161 5.67463,-6.61218 0.38335,4.55616 0.26317,5.01166 0.26317,6.62863 z"
       sodipodi:nodetypes="ssscs" />
    <path
       id="path37"
       style="font-variation-settings:normal;vector-effect:none;fill:#4890e3;fill-opacity:1;stroke-width:3.382;stroke-linecap:round;stroke-linejoin:round;stroke-miterlimit:4;stroke-dasharray:none;stroke-dashoffset:0;stroke-opacity:1;-inkscape-stroke:none;paint-order:markers fill stroke;stop-color:#000000"
       d="m 319.88406,328.2022 c 0,1.61697 -1.39305,2.91133 -3.01002,2.91133 -1.61697,0 -2.92778,-1.31081 -2.92778,-2.92778 0,-1.61697 1.17922,-3.14161 5.67463,-6.61218 0.38335,4.55616 0.26317,5.01166 0.26317,6.62863 z"
       sodipodi:nodetypes="ssscs" />
    <path
       id="path38"
       style="font-variation-settings:normal;vector-effect:none;fill:#4890e3;fill-opacity:1;stroke-width:3.382;stroke-linecap:round;stroke-linejoin:round;stroke-miterlimit:4;stroke-dasharray:none;stroke-dashoffset:0;stroke-opacity:1;-inkscape-stroke:none;paint-order:markers fill stroke;stop-color:#000000"
       d="m 302.12,329.05751 c 0,1.61697 -1.39305,2.91133 -3.01002,2.91133 -1.61697,0 -2.92778,-1.31081 -2.92778,-2.92778 0,-1.61697 1.17922,-3.14161 5.67463,-6.61218 0.38335,4.55616 0.26317,5.01166 0.26317,6.62863 z"
       sodipodi:nodetypes="ssscs" />
    <path
       id="path39"
       style="font-variation-settings:normal;vector-effect:none;fill:#4890e3;fill-opacity:1;stroke-width:3.382;stroke-linecap:round;stroke-linejoin:round;stroke-miterlimit:4;stroke-dasharray:none;stroke-dashoffset:0;stroke-opacity:1;-inkscape-stroke:none;paint-order:markers fill stroke;stop-color:#000000"
       d="m 309.35721,340.50546 c 0,1.61697 -1.39305,2.91133 -3.01002,2.91133 -1.61697,0 -2.92778,-1.31081 -2.92778,-2.92778 0,-1.61697 1.17922,-3.14161 5.67463,-6.61218 0.38335,4.55616 0.26317,5.01166 0.26317,6.62863 z"
       sodipodi:nodetypes="ssscs" />
    <path
       id="path40"
       style="font-variation-settings:normal;vector-effect:none;fill:#4890e3;fill-opacity:1;stroke-width:3.382;stroke-linecap:round;stroke-linejoin:round;stroke-miterlimit:4;stroke-dasharray:none;stroke-dashoffset:0;stroke-opacity:1;-inkscape-stroke:none;paint-order:markers fill stroke;stop-color:#000000"
       d="m 326.52914,339.58436 c 0,1.61697 -1.39305,2.91133 -3.01002,2.91133 -1.61697,0 -2.92778,-1.31081 -2.92778,-2.92778 0,-1.61697 1.17922,-3.14161 5.67463,-6.61218 0.38335,4.55616 0.26317,5.01166 0.26317,6.62863 z"
       sodipodi:nodetypes="ssscs" />
  </g>
</svg>
