<?xml version="1.0" encoding="UTF-8" standalone="no"?>
<!-- Created with Inkscape (http://www.inkscape.org/) -->

<svg
   width="64.435791mm"
   height="66.538727mm"
   viewBox="0 0 64.43579 66.538727"
   version="1.1"
   id="svg1"
   inkscape:version="1.4.2 (f4327f4, 2025-05-13)"
   sodipodi:docname="storm.svg"
   xmlns:inkscape="http://www.inkscape.org/namespaces/inkscape"
   xmlns:sodipodi="http://sodipodi.sourceforge.net/DTD/sodipodi-0.dtd"
   xmlns="http://www.w3.org/2000/svg"
   xmlns:svg="http://www.w3.org/2000/svg">
  <sodipodi:namedview
     id="namedview1"
     pagecolor="#ffffff"
     bordercolor="#000000"
     borderopacity="0.25"
     inkscape:showpageshadow="2"
     inkscape:pageopacity="0.0"
     inkscape:pagecheckerboard="0"
     inkscape:deskcolor="#d1d1d1"
     inkscape:document-units="mm"
     inkscape:zoom="1.0053654"
     inkscape:cx="19.395934"
     inkscape:cy="171.08208"
     inkscape:window-width="1920"
     inkscape:window-height="991"
     inkscape:window-x="-9"
     inkscape:window-y="-9"
     inkscape:window-maximized="1"
     inkscape:current-layer="layer1" />
  <defs
     id="defs1" />
  <g
     inkscape:label="Capa 1"
     inkscape:groupmode="layer"
     id="layer1"
     transform="translate(-243.94583,-278.34165)">
    <path
       id="path16-8"
       style="fill:#7f858b;fill-opacity:1;stroke:none;stroke-width:4.4749;stroke-linecap:round;stroke-linejoin:round;paint-order:markers fill stroke"
       d="m 279.4927,278.34165 a 15.28673,15.393178 0 0 0 -15.1426,13.28529 8.7890117,8.8502137 0 0 0 -3.38779,-0.68417 8.7890117,8.8502137 0 0 0 -8.72299,7.76895 8.7890135,8.8502154 0 0 0 -8.29349,8.83576 8.7890135,8.8502154 0 0 0 8.78891,8.85058 H 295.742 a 12.639512,12.727527 0 0 0 12.63962,-12.72763 12.639512,12.727527 0 0 0 -12.63962,-12.72766 12.639512,12.727527 0 0 0 -1.20561,0.0579 15.28673,15.393178 0 0 0 -15.04369,-12.65899 z" />
    <path
       id="path18"
       style="baseline-shift:baseline;display:inline;overflow:visible;vector-effect:none;fill:#fdc106;fill-opacity:1;stroke-linecap:round;stroke-linejoin:round;paint-order:markers fill stroke;enable-background:accumulate;stop-color:#000000"
       d="m 281.69304,311.70702 -10.14046,0.18759 a 0.95009499,0.95009499 0 0 0 -0.8692,0.60926 l -5.90817,15.39854 a 0.95009499,0.95009499 0 0 0 0.88677,1.29088 h 5.58777 l -3.1073,11.21689 a 0.95009499,0.95009499 0 0 0 1.66966,0.82992 l 12.04888,-15.81816 a 0.95009499,0.95009499 0 0 0 -0.75603,-1.52548 h -5.02139 l 6.44353,-10.74974 a 0.95009499,0.95009499 0 0 0 -0.83406,-1.4397 z" />
    <path
       id="path19"
       style="fill:#4890e3;fill-opacity:1;stroke-width:3.382;stroke-linecap:round;stroke-linejoin:round;paint-order:markers fill stroke"
       d="m 253.42819,330.61755 c 0,1.61697 -1.39305,2.91133 -3.01002,2.91133 -1.61697,0 -2.92778,-1.31081 -2.92778,-2.92778 0,-1.61697 1.17923,-3.14161 5.67463,-6.61218 0.38335,4.55616 0.26317,5.01166 0.26317,6.62863 z"
       sodipodi:nodetypes="ssscs" />
    <path
       id="path20"
       style="font-variation-settings:normal;vector-effect:none;fill:#4890e3;fill-opacity:1;stroke-width:3.382;stroke-linecap:round;stroke-linejoin:round;stroke-miterlimit:4;stroke-dasharray:none;stroke-dashoffset:0;stroke-opacity:1;-inkscape-stroke:none;paint-order:markers fill stroke;stop-color:#000000"
       d="m 260.12744,341.96905 c 0,1.61697 -1.39305,2.91133 -3.01002,2.91133 -1.61697,0 -2.92778,-1.31081 -2.92779,-2.92778 1e-5,-1.61697 1.17923,-3.14161 5.67464,-6.61218 0.38335,4.55616 0.26317,5.01166 0.26317,6.62863 z"
       sodipodi:nodetypes="ssscs" />
    <path
       id="path21"
       style="font-variation-settings:normal;vector-effect:none;fill:#4890e3;fill-opacity:1;stroke-width:3.382;stroke-linecap:round;stroke-linejoin:round;stroke-miterlimit:4;stroke-dasharray:none;stroke-dashoffset:0;stroke-opacity:1;-inkscape-stroke:none;paint-order:markers fill stroke;stop-color:#000000"
       d="m 287.4827,341.22469 c 0,1.61697 -1.39305,2.91133 -3.01002,2.91133 -1.61697,0 -2.92778,-1.31081 -2.92778,-2.92778 0,-1.61697 1.17922,-3.14161 5.67463,-6.61218 0.38335,4.55616 0.26317,5.01166 0.26317,6.62863 z"
       sodipodi:nodetypes="ssscs" />
    <path
       id="path22"
       style="font-variation-settings:normal;vector-effect:none;fill:#4890e3;fill-opacity:1;stroke-width:3.382;stroke-linecap:round;stroke-linejoin:round;stroke-miterlimit:4;stroke-dasharray:none;stroke-dashoffset:0;stroke-opacity:1;-inkscape-stroke:none;paint-order:markers fill stroke;stop-color:#000000"
       d="m 299.20638,329.50101 c 0,1.61697 -1.39305,2.91133 -3.01002,2.91133 -1.61697,0 -2.92778,-1.31081 -2.92778,-2.92778 0,-1.61697 1.17922,-3.14161 5.67463,-6.61218 0.38335,4.55616 0.26317,5.01166 0.26317,6.62863 z"
       sodipodi:nodetypes="ssscs" />
  </g>
</svg>
