<?xml version="1.0" encoding="UTF-8" standalone="no"?>
<!-- Created with Inkscape (http://www.inkscape.org/) -->

<svg
   width="81.683182mm"
   height="60.841049mm"
   viewBox="0 0 81.68318 60.841049"
   version="1.1"
   id="svg1"
   inkscape:version="1.4.2 (f4327f4, 2025-05-13)"
   sodipodi:docname="unknown.svg"
   xmlns:inkscape="http://www.inkscape.org/namespaces/inkscape"
   xmlns:sodipodi="http://sodipodi.sourceforge.net/DTD/sodipodi-0.dtd"
   xmlns="http://www.w3.org/2000/svg"
   xmlns:svg="http://www.w3.org/2000/svg">
  <sodipodi:namedview
     id="namedview1"
     pagecolor="#ffffff"
     bordercolor="#000000"
     borderopacity="0.25"
     inkscape:showpageshadow="2"
     inkscape:pageopacity="0.0"
     inkscape:pagecheckerboard="0"
     inkscape:deskcolor="#d1d1d1"
     inkscape:document-units="mm"
     inkscape:zoom="1.0053654"
     inkscape:cx="-174.5634"
     inkscape:cy="152.18348"
     inkscape:window-width="1920"
     inkscape:window-height="991"
     inkscape:window-x="-9"
     inkscape:window-y="-9"
     inkscape:window-maximized="1"
     inkscape:current-layer="layer1" />
  <defs
     id="defs1" />
  <g
     inkscape:label="Capa 1"
     inkscape:groupmode="layer"
     id="layer1"
     transform="translate(-295.275,-283.36873)">
    <path
       id="path32"
       style="font-variation-settings:normal;fill:#eff2f5;fill-opacity:1;stroke:#d2d8df;stroke-width:5.2;stroke-linecap:round;stroke-linejoin:round;stroke-miterlimit:4;stroke-dasharray:none;stroke-dashoffset:0;stroke-opacity:1;paint-order:markers fill stroke"
       d="m 333.97615,285.96873 a 21.958645,21.958645 0 0 0 -21.86636,19.94762 18.050751,18.050751 0 0 0 -14.23479,17.64285 18.050751,18.050751 0 0 0 18.05057,18.05058 h 5.2e-4 37.96202 a 20.469923,20.469923 0 0 0 20.47007,-20.47007 20.469923,20.469923 0 0 0 -19.65151,-20.45353 21.958645,21.958645 0 0 0 -20.73052,-14.71745 z" />
    <path
       style="font-size:50.4387px;line-height:1;font-family:'Arial Rounded MT Bold';-inkscape-font-specification:'Arial Rounded MT Bold, ';letter-spacing:-1.60773px;word-spacing:4.6908px;fill:#53606c;stroke-width:37.1737;stroke-linecap:round;stroke-linejoin:round;paint-order:markers fill stroke"
       d="m 322.6859,307.31659 q 0,-2.33969 1.50233,-4.72863 1.50232,-2.41357 4.38383,-3.98978 2.88151,-1.57621 6.72352,-1.57621 3.5711,0 6.30484,1.32993 2.73374,1.3053 4.21143,3.5711 1.50233,2.2658 1.50233,4.92565 0,2.09341 -0.86199,3.66962 -0.83736,1.57621 -2.01952,2.73373 -1.15753,1.1329 -4.18681,3.84201 -0.83736,0.76348 -1.35455,1.35456 -0.49257,0.56645 -0.73885,1.05902 -0.24628,0.46793 -0.39405,0.9605 -0.12314,0.46794 -0.39405,1.67472 -0.46794,2.56134 -2.93077,2.56134 -1.28067,0 -2.16729,-0.83736 -0.86199,-0.83736 -0.86199,-2.48746 0,-2.06877 0.64034,-3.5711 0.64033,-1.52695 1.69935,-2.65985 1.05901,-1.15753 2.85688,-2.73374 1.57621,-1.37918 2.2658,-2.06877 0.71422,-0.71422 1.18216,-1.57621 0.49256,-0.86199 0.49256,-1.87175 0,-1.97026 -1.47769,-3.32482 -1.45307,-1.35455 -3.76813,-1.35455 -2.70911,0 -3.98978,1.37918 -1.28067,1.35456 -2.16729,4.01441 -0.83736,2.78299 -3.17704,2.78299 -1.37919,0 -2.33969,-0.9605 -0.93588,-0.98513 -0.93588,-2.11803 z m 12.0186,26.99259 q -1.50232,0 -2.63522,-0.96051 -1.10828,-0.98513 -1.10828,-2.73373 0,-1.55159 1.08365,-2.6106 1.08364,-1.05902 2.65985,-1.05902 1.55158,0 2.6106,1.05902 1.05901,1.05901 1.05901,2.6106 0,1.72398 -1.10827,2.70911 -1.10827,0.98513 -2.56134,0.98513 z"
       id="text33"
       aria-label="?" />
  </g>
</svg>
